<svg xmlns="http://www.w3.org/2000/svg" stroke="#C67264" stroke-width="2" fill="#C67264" width="63.891" height="56.551" viewBox="0 0 63.891 56.551">
<path d="M54.619-49.15a41.82,41.82,0,0,0-3.179,3.794A26.073,26.073,0,0,1,57.166-41.1,25.9,25.9,0,0,1,61.4-35.649a25.927,25.927,0,0,1,2.632,6.375,27.175,27.175,0,0,1,.906,7.024,32.684,32.684,0,0,1-.632,6.392,26.463,26.463,0,0,1-1.982,6.067,24.268,24.268,0,0,1-3.435,5.366A21.265,21.265,0,0,1,53.9-.12a25.033,25.033,0,0,1-6.631,2.871A31.079,31.079,0,0,1,38.9,3.794a38.821,38.821,0,0,1-7.861-.769q-3.726-.769-7.144-1.692A22.228,22.228,0,0,1,18.132,4.1a23.32,23.32,0,0,1-7.058.991A11.535,11.535,0,0,1,8.306,4.8a5.732,5.732,0,0,1-1.9-.8A3.442,3.442,0,0,1,5.315,2.82a2.883,2.883,0,0,1-.359-1.384A3.294,3.294,0,0,1,5.383-.188a3.943,3.943,0,0,1,1.3-1.35A7.167,7.167,0,0,1,8.9-2.461,12.976,12.976,0,0,1,12.065-2.8a23.725,23.725,0,0,1,4.973.53q2.478.53,5.042,1.213a27.648,27.648,0,0,0,4.563-5.417,72.441,72.441,0,0,0,3.965-6.9q1.9-3.743,3.726-7.844t3.9-8.237q2.068-4.136,4.478-8.1a55.552,55.552,0,0,1,5.417-7.451,28.22,28.22,0,0,0-5.554-1.692,32.661,32.661,0,0,0-6.409-.6,37.082,37.082,0,0,0-8.032.854,37.152,37.152,0,0,0-7.212,2.358A34.014,34.014,0,0,0,14.8-40.571a26.517,26.517,0,0,0-4.734,4.358,19.3,19.3,0,0,0-3.042,4.888A12.948,12.948,0,0,0,5.947-26.25,7.611,7.611,0,0,0,6.6-23.14a8.289,8.289,0,0,0,1.777,2.581A8.426,8.426,0,0,0,11.04-18.8a8.523,8.523,0,0,0,3.35.649,12.159,12.159,0,0,0,2.786-.325,21.08,21.08,0,0,0,2.649-.8,22.583,22.583,0,0,0,2.358-1.042q1.094-.564,1.914-1.06t1.282-.82q.461-.325.5-.359l1.094,1.436q-1.606,1.06-3.333,2.034a33.387,33.387,0,0,1-3.572,1.743,24.2,24.2,0,0,1-3.828,1.23,17.732,17.732,0,0,1-4.033.461,10.885,10.885,0,0,1-3.9-.7,9.84,9.84,0,0,1-3.23-1.982,9.606,9.606,0,0,1-2.2-3.059,9.267,9.267,0,0,1-.82-3.931,13.56,13.56,0,0,1,1.111-5.161A22.881,22.881,0,0,1,6.34-35.837a30.381,30.381,0,0,1,5.076-5.042A36.162,36.162,0,0,1,18.2-45.1a40.5,40.5,0,0,1,8.306-2.905,41.652,41.652,0,0,1,9.656-1.077,33.755,33.755,0,0,1,7.024.7,30.091,30.091,0,0,1,6.169,2,40.154,40.154,0,0,1,4.2-3.9Zm6.6,24.575a24.862,24.862,0,0,0-.718-6.05,21.411,21.411,0,0,0-2.1-5.332A20.564,20.564,0,0,0,55-40.435a20.515,20.515,0,0,0-4.614-3.452A66.157,66.157,0,0,0,45.835-36.3q-2.051,4-3.862,8.1t-3.555,8.135q-1.743,4.033-3.64,7.708A58.731,58.731,0,0,1,30.659-5.52a28.52,28.52,0,0,1-4.99,5.486Q28.4.718,31.138,1.282a27.85,27.85,0,0,0,5.64.564,25.519,25.519,0,0,0,10.6-2.068,21.758,21.758,0,0,0,7.656-5.64,23.977,23.977,0,0,0,4.631-8.391A33.419,33.419,0,0,0,61.216-24.575ZM10.938,3.315a15.972,15.972,0,0,0,5.076-.769A15.783,15.783,0,0,0,20.3.342Q18.047-.239,16-.632a20.888,20.888,0,0,0-3.931-.393,8.768,8.768,0,0,0-3.982.7q-1.316.7-1.316,1.692a1.64,1.64,0,0,0,.94,1.367A6.518,6.518,0,0,0,10.938,3.315Z" transform="translate(-1.551 50.958)" stroke-width="1"/></svg>