<?xml version="1.0" standalone="no"?>
<!DOCTYPE svg PUBLIC "-//W3C//DTD SVG 20010904//EN"
 "http://www.w3.org/TR/2001/REC-SVG-20010904/DTD/svg10.dtd">
<svg version="1.0" xmlns="http://www.w3.org/2000/svg"
 width="1024.000000pt" height="1024.000000pt" viewBox="0 0 1024.000000 1024.000000"
 preserveAspectRatio="xMidYMid meet">
<metadata>
Created by potrace 1.14, written by Peter Selinger 2001-2017
</metadata>
<g transform="translate(0.000000,1024.000000) scale(0.100000,-0.100000)"
fill="#000000" stroke="none">
<path d="M8253 9578 c-174 -141 -277 -234 -482 -435 -68 -68 -131 -123 -139
-123 -8 0 -33 8 -56 19 -54 25 -99 44 -108 47 -5 1 -10 3 -13 4 -3 1 -8 3 -12
5 -12 3 -46 16 -68 26 -11 4 -63 22 -115 39 -52 17 -102 33 -110 37 -8 3 -24
8 -35 10 -25 6 -36 9 -55 15 -59 20 -259 71 -320 82 -14 2 -45 9 -70 14 -52
12 -137 28 -195 38 -22 3 -51 8 -65 10 -14 3 -43 7 -65 9 -22 2 -51 6 -65 9
-14 4 -52 8 -85 11 -33 3 -76 7 -95 10 -240 27 -975 27 -1175 0 -16 -2 -61 -7
-100 -10 -38 -3 -77 -8 -85 -10 -18 -5 -136 -18 -167 -19 -13 0 -23 -2 -23 -5
0 -4 -15 -6 -33 -7 -28 -1 -53 -4 -122 -17 -20 -4 -63 -12 -125 -22 -36 -6
-302 -62 -332 -70 -10 -3 -28 -8 -40 -11 -13 -3 -32 -7 -43 -9 -11 -2 -20 -4
-20 -5 0 -1 -7 -3 -16 -5 -25 -4 -118 -31 -269 -77 -74 -23 -141 -41 -147 -41
-7 0 -13 -4 -13 -9 0 -4 -9 -8 -20 -8 -11 0 -28 -4 -38 -9 -9 -5 -57 -24 -107
-41 -49 -17 -127 -47 -172 -65 -45 -18 -84 -31 -87 -28 -3 4 -6 1 -6 -5 0 -7
-6 -12 -13 -12 -8 0 -27 -6 -43 -14 -24 -13 -76 -35 -94 -41 -3 -1 -32 -15
-65 -30 -33 -16 -62 -29 -65 -30 -16 -3 -242 -118 -335 -171 -161 -90 -173
-96 -258 -150 -43 -27 -86 -54 -95 -59 -102 -62 -344 -233 -350 -247 -2 -5 -8
-8 -13 -8 -8 0 -42 -26 -75 -57 -7 -7 -17 -13 -22 -13 -6 0 -12 -3 -14 -8 -2
-4 -39 -36 -83 -72 -44 -36 -89 -74 -101 -85 -13 -11 -42 -37 -66 -59 -109
-97 -285 -275 -413 -419 -25 -28 -132 -157 -155 -186 -14 -18 -32 -41 -40 -51
-8 -10 -22 -28 -30 -40 -8 -13 -24 -35 -35 -49 -75 -97 -230 -351 -291 -476
-21 -44 -41 -82 -44 -85 -3 -3 -13 -23 -22 -45 -9 -22 -34 -83 -56 -135 -70
-169 -138 -392 -126 -412 3 -4 1 -8 -4 -8 -5 0 -9 -6 -9 -12 -1 -14 -11 -80
-18 -118 -26 -130 -25 -500 0 -590 2 -8 6 -26 9 -40 3 -14 8 -37 11 -51 6 -30
43 -155 52 -179 3 -8 5 -18 5 -22 -1 -5 3 -8 10 -8 6 0 9 -3 6 -6 -17 -16 158
-320 239 -416 48 -57 206 -212 253 -248 25 -19 47 -38 48 -42 2 -4 7 -8 12 -8
5 0 36 -18 69 -40 33 -22 64 -40 70 -40 5 0 11 -3 13 -7 2 -5 43 -28 92 -51
137 -67 348 -133 506 -158 109 -17 392 -25 428 -12 13 4 21 5 19 0 -3 -4 9 -6
26 -5 18 1 32 2 32 3 0 1 20 3 45 5 25 2 65 6 90 10 25 3 59 8 75 10 115 14
299 55 455 103 30 9 57 17 60 17 17 3 126 40 130 44 3 3 14 7 25 9 11 1 29 7
40 12 27 13 78 33 91 35 10 3 115 47 194 82 72 32 285 137 290 142 3 3 11 7
18 9 7 1 31 14 52 27 22 14 40 22 40 18 0 -4 7 2 15 13 8 10 15 16 15 12 0 -4
29 10 65 32 36 22 67 40 69 40 2 0 43 25 92 55 49 30 104 62 122 71 17 9 32
20 32 25 0 5 4 9 9 9 10 0 158 92 208 129 l32 24 -22 27 c-12 15 -29 37 -37
50 -14 21 -23 31 -60 77 -9 10 -30 39 -47 63 -17 25 -41 55 -52 68 -12 12 -20
22 -17 22 3 0 -5 11 -18 25 -13 14 -26 25 -30 25 -6 0 -38 -24 -68 -52 -10
-10 -22 -18 -26 -18 -5 0 -17 -9 -28 -21 -10 -12 -32 -28 -48 -36 -17 -9 -36
-22 -44 -29 -7 -8 -19 -14 -27 -14 -7 0 -15 -4 -17 -9 -3 -10 -48 -38 -115
-73 -24 -12 -43 -26 -43 -30 0 -4 -9 -8 -20 -8 -11 0 -20 -4 -20 -9 0 -5 -12
-14 -27 -20 -16 -5 -59 -27 -98 -49 -93 -51 -294 -143 -330 -152 -5 -1 -26
-10 -45 -20 -19 -10 -87 -34 -150 -55 -63 -20 -122 -39 -130 -42 -8 -4 -19 -7
-25 -8 -5 -2 -46 -12 -90 -23 -115 -29 -230 -51 -305 -58 -88 -8 -303 -12
-315 -6 -5 3 -30 7 -55 8 -50 3 -153 25 -218 48 -23 8 -42 13 -42 10 0 -3 -12
1 -27 10 -33 17 -126 60 -133 60 -13 2 -112 65 -177 112 -92 68 -253 228 -253
252 0 6 -4 12 -8 14 -24 10 -138 216 -162 293 -7 22 -16 45 -19 50 -11 15 -31
106 -48 210 -10 63 -3 395 8 395 4 0 5 10 5 23 -1 12 0 27 3 32 3 6 6 19 7 30
4 45 52 236 74 290 22 55 43 120 39 121 -2 1 4 11 14 22 10 10 19 28 21 38 4
18 55 129 76 164 5 8 32 58 61 110 28 52 56 97 60 98 5 2 9 8 9 14 0 10 149
227 174 254 6 7 25 29 41 49 128 158 277 312 485 499 41 36 260 209 320 250
30 22 57 43 58 48 2 4 10 8 17 8 8 0 20 6 27 13 30 29 293 192 438 271 90 49
311 159 395 196 28 12 64 28 80 35 17 7 77 32 135 54 58 23 114 46 125 51 22
11 380 130 405 135 8 2 42 11 75 21 33 10 65 19 70 20 6 1 21 4 35 7 14 3 63
15 110 27 47 12 94 24 105 26 11 2 31 6 45 9 144 28 179 35 205 40 17 2 41 7
55 10 14 3 41 8 60 10 19 2 51 6 70 9 19 3 58 8 85 11 28 3 64 8 80 10 17 3
59 7 95 11 36 3 81 7 100 9 19 2 92 6 163 9 70 3 131 6 135 8 21 9 516 -3 652
-17 19 -1 65 -6 101 -9 36 -4 76 -8 88 -11 13 -2 46 -7 75 -10 57 -7 85 -11
136 -20 136 -24 206 -38 285 -56 50 -11 97 -22 105 -23 8 -2 22 -6 30 -9 16
-6 166 -48 190 -52 8 -2 16 -4 18 -5 1 -2 5 -3 10 -5 4 -1 14 -4 22 -7 8 -3
69 -25 135 -48 66 -23 121 -43 122 -44 2 -2 -48 -65 -110 -142 -61 -77 -150
-191 -197 -254 -47 -63 -88 -116 -92 -118 -5 -2 -8 -10 -8 -18 0 -8 -7 -17
-15 -20 -8 -4 -15 -12 -15 -18 0 -7 -9 -22 -20 -34 -28 -30 -298 -440 -305
-463 -4 -11 -11 -19 -16 -19 -5 0 -9 -4 -9 -9 0 -5 -24 -48 -52 -95 -29 -47
-58 -94 -63 -103 -36 -63 -87 -150 -95 -163 -29 -46 -110 -193 -110 -200 0 -5
-5 -10 -11 -12 -5 -2 -11 -11 -12 -20 -2 -9 -8 -22 -14 -29 -6 -8 -28 -47 -48
-86 -21 -40 -42 -73 -47 -73 -4 0 -7 -3 -7 -7 3 -17 -2 -32 -13 -45 -7 -8 -35
-59 -63 -113 -27 -55 -53 -101 -57 -103 -5 -2 -8 -12 -8 -22 0 -10 -4 -20 -8
-22 -9 -4 -91 -169 -91 -182 1 -5 -3 -12 -8 -15 -13 -8 -343 -681 -343 -698 0
-3 -10 -19 -22 -36 -13 -18 -22 -33 -20 -35 3 -3 -14 -42 -57 -134 -17 -36
-31 -71 -31 -77 0 -6 -4 -11 -10 -11 -5 0 -10 -5 -10 -12 0 -6 -11 -34 -24
-62 -26 -56 -58 -128 -61 -136 -1 -5 -38 -85 -91 -196 -19 -39 -34 -74 -34
-77 0 -3 -22 -53 -50 -112 -27 -59 -50 -108 -50 -110 0 -1 -30 -65 -66 -141
-104 -219 -108 -229 -106 -236 1 -5 -3 -8 -8 -8 -6 0 -10 -4 -10 -9 0 -15
-182 -385 -192 -392 -5 -3 -9 -9 -8 -13 3 -10 -123 -260 -132 -264 -5 -2 -8
-12 -8 -22 0 -10 -3 -20 -7 -22 -5 -1 -22 -30 -39 -63 -85 -166 -312 -558
-326 -563 -4 -2 -8 -9 -8 -15 0 -10 -72 -129 -97 -162 -5 -5 -14 -22 -22 -37
-8 -15 -21 -36 -30 -46 -19 -21 -38 -51 -48 -72 -4 -8 -9 -17 -12 -20 -3 -3
-20 -25 -36 -50 -45 -68 -92 -132 -115 -157 -11 -12 -20 -25 -20 -28 0 -2 -8
-14 -17 -26 -70 -86 -150 -179 -216 -253 -79 -87 -234 -236 -247 -236 -15 0
-173 38 -200 48 -8 3 -22 6 -30 7 -8 1 -71 16 -140 33 -69 18 -136 34 -150 37
-14 3 -65 14 -115 25 -49 12 -100 23 -112 25 -59 12 -80 16 -108 21 -16 2 -50
9 -75 14 -25 5 -67 12 -95 15 -27 4 -63 9 -80 11 -164 24 -502 34 -680 21 -94
-7 -126 -11 -210 -28 -27 -5 -60 -11 -72 -13 -12 -3 -57 -14 -99 -26 -346 -97
-575 -313 -620 -585 -11 -63 -7 -177 7 -225 7 -25 13 -47 14 -50 21 -81 114
-204 216 -285 67 -53 230 -128 331 -151 43 -10 65 -14 98 -20 19 -4 44 -8 55
-10 111 -20 544 -26 715 -10 136 13 145 14 145 16 0 1 16 3 35 5 19 2 35 4 35
5 0 1 14 3 30 5 17 1 45 5 63 9 17 3 44 8 60 11 15 3 38 7 52 10 14 4 34 8 45
10 45 8 82 17 120 27 22 6 47 12 55 13 8 2 15 4 15 5 0 1 11 3 25 6 39 7 319
104 377 130 28 13 55 24 59 24 9 0 312 150 369 182 22 13 74 44 115 70 59 37
83 47 113 45 20 -1 37 -5 37 -8 0 -3 6 -6 13 -6 6 0 50 -10 97 -23 47 -12 92
-23 101 -25 9 -2 33 -8 55 -14 21 -5 53 -13 69 -17 17 -4 35 -8 40 -10 59 -16
236 -57 255 -59 14 -2 25 -4 25 -5 0 -2 26 -9 65 -15 19 -4 53 -11 75 -17 42
-11 50 -12 130 -29 28 -6 59 -12 70 -15 79 -16 223 -43 260 -48 17 -3 46 -7
65 -11 19 -3 51 -8 70 -11 67 -9 85 -12 85 -14 0 0 23 -3 50 -5 28 -2 70 -6
95 -9 147 -17 260 -25 418 -31 68 -3 128 -7 133 -10 5 -4 9 -1 9 5 0 7 6 8 18
2 9 -5 26 -6 37 -2 11 4 27 4 35 1 20 -9 202 -7 217 2 6 4 14 3 18 -3 4 -6 11
-8 16 -5 5 4 57 8 117 10 101 4 174 9 267 20 22 2 63 7 90 10 28 3 61 7 75 10
42 7 104 17 135 20 41 5 139 24 260 50 37 8 91 19 98 21 4 1 8 2 10 4 1 1 11
3 22 4 32 4 169 44 305 89 69 22 128 42 133 43 4 1 10 3 15 4 4 1 10 2 15 1 4
0 7 3 7 8 0 5 12 12 28 16 52 13 436 187 452 205 3 3 16 11 30 17 143 70 399
241 575 387 156 128 414 389 485 490 8 12 24 31 35 43 11 12 31 38 45 58 14
20 32 45 41 55 9 9 25 31 35 49 10 17 22 31 26 31 4 0 8 5 8 10 0 9 54 95 78
125 11 14 89 147 129 220 70 127 181 362 214 453 90 243 109 299 150 447 18
63 22 82 34 135 2 8 4 15 5 15 2 0 6 20 15 65 3 19 10 51 15 70 5 19 11 51 14
70 3 19 8 46 11 60 2 13 7 40 10 60 3 20 7 45 9 55 3 18 10 63 21 135 7 44 18
164 19 202 1 21 3 38 6 38 22 0 17 796 -6 925 -2 14 -7 47 -9 73 -5 59 -13
111 -26 187 -6 33 -12 69 -14 80 -3 19 -10 58 -19 100 -4 20 -44 188 -50 215
-2 8 -16 56 -31 105 -14 50 -27 95 -29 100 -1 6 -13 42 -26 80 -13 39 -25 73
-26 78 -1 4 -3 9 -4 12 -1 3 -3 8 -5 13 -1 4 -5 16 -10 27 -4 11 -21 52 -36
90 -15 39 -35 88 -45 110 -10 22 -18 42 -19 45 -3 15 -146 296 -182 358 -24
40 -43 75 -43 78 0 3 -11 20 -25 38 -14 18 -25 37 -25 42 0 5 -11 22 -25 38
-14 16 -25 35 -25 43 0 7 -3 13 -8 13 -4 0 -16 16 -26 35 -11 19 -23 35 -28
35 -4 0 -8 5 -8 10 0 9 -72 112 -90 130 -3 3 -18 23 -35 45 -16 22 -31 42 -34
45 -4 3 -24 28 -46 55 -22 28 -55 67 -75 89 -19 21 -48 53 -63 70 -105 117
-289 292 -427 407 -133 110 -430 320 -520 367 -14 7 -33 19 -43 27 -18 13 -18
15 5 46 12 19 29 40 36 47 7 8 25 30 40 50 15 21 29 39 32 42 3 3 30 34 60 70
63 75 58 69 130 150 30 34 81 90 113 123 31 34 57 64 57 67 0 6 -40 49 -185
202 l-83 88 -89 -72z m-316 -1219 c23 -16 46 -29 51 -29 5 0 17 -9 27 -20 10
-11 23 -20 30 -20 7 0 20 -9 30 -20 10 -11 22 -20 27 -20 4 0 16 -8 26 -17 11
-10 32 -27 47 -38 31 -22 103 -78 149 -116 89 -74 339 -332 421 -434 82 -103
114 -147 184 -255 33 -52 64 -100 68 -106 30 -42 142 -262 188 -369 25 -60 50
-119 55 -130 39 -86 140 -431 164 -560 25 -130 41 -232 51 -330 4 -33 9 -73
11 -90 11 -95 20 -382 15 -495 -1 -14 -1 -32 0 -40 2 -23 -11 -279 -16 -314
-2 -17 -7 -62 -11 -101 -9 -101 -11 -126 -18 -165 -3 -19 -8 -55 -11 -80 -3
-25 -7 -56 -10 -70 -3 -14 -12 -61 -20 -105 -8 -44 -17 -91 -20 -105 -3 -14
-7 -36 -10 -50 -8 -40 -12 -61 -30 -130 -8 -36 -17 -72 -19 -80 -2 -8 -12 -42
-21 -75 -9 -33 -18 -67 -19 -75 -2 -8 -6 -22 -9 -30 -2 -8 -21 -67 -42 -130
-99 -311 -243 -613 -427 -897 -51 -78 -115 -169 -145 -208 -5 -5 -37 -47 -73
-92 -36 -46 -68 -83 -72 -83 -5 0 -8 -5 -8 -11 0 -14 -254 -268 -346 -346
-137 -116 -339 -261 -444 -319 -19 -10 -37 -22 -40 -25 -9 -10 -165 -93 -179
-96 -8 -1 -17 -6 -20 -10 -3 -5 -55 -31 -116 -57 -60 -26 -123 -54 -140 -61
-26 -12 -122 -47 -135 -51 -3 0 -18 -6 -34 -13 -16 -6 -38 -13 -50 -16 -11 -2
-22 -4 -23 -6 -2 -1 -6 -2 -10 -4 -5 -1 -15 -4 -23 -8 -20 -7 -82 -26 -106
-32 -10 -2 -70 -18 -133 -34 -63 -17 -126 -32 -140 -35 -14 -3 -51 -9 -81 -15
-105 -20 -157 -28 -224 -36 -21 -2 -55 -7 -75 -10 -129 -19 -715 -27 -876 -13
-105 10 -187 19 -220 24 -16 2 -46 6 -65 8 -19 2 -46 7 -60 9 -14 3 -59 11
-100 18 -41 7 -77 13 -80 14 -3 1 -23 5 -45 10 -22 4 -49 10 -60 12 -11 3 -33
7 -50 10 -16 2 -37 7 -45 10 -8 3 -24 8 -35 9 -11 2 -59 13 -106 24 -48 11
-95 22 -105 24 -31 7 -268 66 -284 72 -10 4 18 37 90 108 141 138 271 277 346
370 21 27 48 60 59 72 20 22 103 132 175 234 22 30 43 60 48 65 4 6 19 28 32
50 13 22 30 46 37 53 7 7 13 17 13 22 0 5 6 15 13 22 17 17 212 328 220 351 3
9 11 17 17 17 6 0 8 5 5 10 -3 6 -1 10 4 10 6 0 11 4 11 9 0 4 23 48 51 97 98
170 147 260 253 469 58 116 110 215 116 222 5 7 10 15 10 18 0 3 13 33 29 66
17 32 27 59 23 59 -4 0 -2 4 4 8 5 4 18 25 28 47 11 22 47 100 82 173 35 73
64 135 64 137 0 3 15 38 34 77 43 90 77 166 107 238 13 30 31 70 41 88 10 18
18 37 18 42 0 5 13 37 29 72 16 35 72 164 126 288 54 124 105 243 115 265 10
22 43 99 75 170 31 72 65 148 75 170 9 22 34 78 55 125 20 47 48 108 61 137
13 28 24 54 24 56 0 3 18 45 41 94 23 48 48 104 56 123 8 19 26 58 39 85 13
28 24 56 24 63 0 6 5 12 10 12 6 0 9 3 8 8 -1 4 11 34 27 67 15 33 29 62 30
65 0 3 8 19 18 36 9 17 13 34 10 38 -4 3 -1 6 5 6 7 0 12 4 12 9 0 6 34 79 75
164 41 85 75 158 75 163 0 4 7 15 16 25 8 9 17 23 18 31 1 7 15 38 31 68 71
138 135 269 135 279 0 6 4 11 8 11 5 0 23 30 41 68 18 37 38 76 45 87 20 34
50 90 51 95 0 3 19 37 41 75 23 39 52 89 65 113 20 35 64 108 222 367 7 11 15
22 18 25 4 3 9 15 13 28 4 12 11 22 14 22 4 0 18 20 32 45 14 25 28 45 32 45
5 0 8 6 8 14 0 8 3 16 8 18 4 2 24 29 45 61 43 64 39 64 124 6z m-5967 -6802
c19 -3 66 -8 104 -12 38 -3 72 -8 75 -9 3 -2 27 -7 53 -10 26 -4 53 -8 60 -11
7 -2 31 -7 52 -10 21 -3 48 -7 60 -10 12 -3 32 -7 46 -10 32 -6 182 -39 288
-64 46 -11 86 -21 88 -24 3 -3 -9 -15 -25 -27 -17 -12 -31 -18 -31 -15 0 3
-12 -2 -27 -13 -62 -44 -373 -181 -423 -187 -3 0 -10 -3 -16 -7 -6 -4 -23 -9
-38 -12 -15 -3 -50 -12 -79 -20 -29 -8 -63 -17 -77 -20 -14 -3 -36 -8 -50 -11
-14 -3 -41 -8 -60 -11 -19 -2 -46 -7 -60 -9 -104 -19 -240 -28 -425 -28 -177
1 -214 4 -287 24 -24 6 -50 13 -58 14 -8 2 -16 4 -17 5 -2 2 -6 3 -10 5 -40
11 -112 45 -136 65 -28 23 -59 89 -59 127 0 53 45 112 122 162 46 30 244 104
253 95 3 -3 14 -1 24 4 11 6 38 13 61 15 23 2 45 7 49 10 6 7 487 1 543 -6z"/>
</g>
</svg>
