<svg width="159" height="139" viewBox="0 0 159 139" fill="none" xmlns="http://www.w3.org/2000/svg">
<path d="M132.381 3.12402C129.533 6.14323 126.884 9.30485 124.434 12.6089C129.789 15.5711 134.546 19.1315 138.704 23.29C142.92 27.3916 146.451 31.9204 149.3 36.8765C152.205 41.8325 154.398 47.1589 155.879 52.8555C157.417 58.4951 158.187 64.3341 158.187 70.3726C158.187 75.7274 157.645 81.0537 156.563 86.3516C155.538 91.6494 153.886 96.7194 151.607 101.562C149.385 106.347 146.537 110.819 143.062 114.977C139.587 119.079 135.429 122.667 130.586 125.744C125.744 128.763 120.219 131.127 114.009 132.836C107.8 134.602 100.822 135.485 93.0742 135.485C86.1813 135.485 79.6302 134.83 73.4209 133.52C67.2116 132.266 61.2586 130.871 55.562 129.333C51.1756 132.295 46.362 134.602 41.1211 136.254C35.9372 137.906 30.0697 138.732 23.5186 138.732C20.8411 138.732 18.534 138.476 16.5972 137.963C14.6603 137.507 13.0653 136.852 11.812 135.998C10.6157 135.143 9.70426 134.146 9.07764 133.007C8.50798 131.924 8.22314 130.785 8.22314 129.589C8.22314 128.165 8.56494 126.826 9.24854 125.573C9.9891 124.263 11.0715 123.123 12.4956 122.155C13.9767 121.186 15.8281 120.417 18.0498 119.848C20.3285 119.278 22.9774 118.993 25.9966 118.993C30.1551 118.993 34.2852 119.449 38.3867 120.36C42.5452 121.215 46.7607 122.212 51.0332 123.351C55.1917 119.591 58.98 115.091 62.3979 109.85C65.8729 104.552 69.1769 98.7987 72.3101 92.5894C75.5002 86.3231 78.6048 79.772 81.624 72.936C84.7002 66.1001 87.9473 59.2357 91.3652 52.3428C94.8402 45.4499 98.5715 38.6994 102.559 32.0913C106.604 25.4832 111.132 19.2739 116.146 13.4634C111.873 11.6405 107.23 10.2448 102.217 9.27637C97.2612 8.25098 91.9349 7.73828 86.2383 7.73828C79.2884 7.73828 72.5949 8.45036 66.1577 9.87451C59.7205 11.2987 53.7106 13.264 48.1279 15.7705C42.5452 18.277 37.4468 21.2108 32.8325 24.5718C28.2183 27.9328 24.2591 31.5786 20.9551 35.5093C17.708 39.383 15.173 43.4561 13.3501 47.7285C11.5841 51.944 10.7012 56.1595 10.7012 60.375C10.7012 63.1094 11.2424 65.7013 12.3247 68.1509C13.4071 70.6004 14.8882 72.7651 16.7681 74.645C18.6479 76.4679 20.8696 77.9206 23.4331 79.0029C25.9966 80.0853 28.7879 80.6265 31.8071 80.6265C34.1427 80.6265 36.4499 80.3701 38.7285 79.8574C41.0641 79.2878 43.2858 78.6042 45.3936 77.8066C47.5013 77.0091 49.4666 76.1546 51.2896 75.2432C53.1125 74.2747 54.7075 73.3918 56.0747 72.5942C57.4419 71.7397 58.4958 71.0562 59.2363 70.5435C60.0339 69.9738 60.4611 69.6605 60.5181 69.6035L63.2524 73.1924C60.575 74.9583 57.7837 76.6673 54.8784 78.3193C52.0301 79.9144 49.0679 81.367 45.9917 82.6772C42.9155 83.9305 39.7254 84.9559 36.4214 85.7534C33.1174 86.494 29.7563 86.8643 26.3384 86.8643C22.9204 86.8643 19.6733 86.2946 16.5972 85.1553C13.521 83.959 10.8151 82.307 8.47949 80.1992C6.20085 78.0345 4.37793 75.471 3.01074 72.5088C1.64355 69.5465 0.959961 66.271 0.959961 62.6821C0.959961 58.5806 1.87142 54.2796 3.69434 49.7793C5.57422 45.279 8.22314 40.8356 11.6411 36.4492C15.116 32.0059 19.36 27.7904 24.373 23.8027C29.3861 19.8151 35.0257 16.3117 41.292 13.2925C47.6152 10.2163 54.5366 7.79525 62.0562 6.0293C69.6326 4.20638 77.6934 3.29492 86.2383 3.29492C92.4476 3.29492 98.2866 3.89307 103.755 5.08936C109.281 6.22868 114.437 7.8807 119.222 10.0454C122.469 6.57048 125.972 3.3234 129.732 0.304199L132.381 3.12402ZM148.873 64.562C148.873 59.2642 148.274 54.2227 147.078 49.4375C145.882 44.6523 144.116 40.209 141.78 36.1074C139.502 32.0059 136.682 28.2746 133.321 24.9136C129.96 21.5526 126.115 18.6758 121.785 16.2832C117.627 22.2646 113.838 28.5879 110.42 35.2529C107.002 41.918 103.784 48.6685 100.765 55.5044C97.7454 62.3403 94.7832 69.1193 91.8779 75.8413C88.9727 82.5633 85.925 89.0005 82.7349 95.1528C79.6017 101.248 76.1838 106.945 72.481 112.243C68.7782 117.484 64.6196 122.041 60.0054 125.915C64.5627 127.168 69.12 128.25 73.6772 129.162C78.2345 130.13 82.9342 130.614 87.7764 130.614C97.8024 130.614 106.632 128.905 114.266 125.487C121.899 122.012 128.279 117.313 133.406 111.388C138.533 105.407 142.378 98.3999 144.942 90.3677C147.562 82.3354 148.873 73.7336 148.873 64.562ZM23.1768 134.289C27.791 134.289 32.0065 133.633 35.8232 132.323C39.6969 131.07 43.2858 129.247 46.5898 126.854C42.8301 125.886 39.2412 125.089 35.8232 124.462C32.4053 123.778 29.1297 123.437 25.9966 123.437C21.5532 123.437 18.2207 124.035 15.999 125.231C13.8343 126.37 12.752 127.766 12.752 129.418C12.752 130.728 13.521 131.868 15.0591 132.836C16.6541 133.804 19.36 134.289 23.1768 134.289Z" fill="#C67264"/>
</svg>
